<?xml version="1.0" standalone="no"?>
<!DOCTYPE svg PUBLIC "-//W3C//DTD SVG 20010904//EN"
 "http://www.w3.org/TR/2001/REC-SVG-20010904/DTD/svg10.dtd">
<svg version="1.0" xmlns="http://www.w3.org/2000/svg"
 width="752.000000pt" height="759.000000pt" viewBox="0 0 752.000000 759.000000"
 preserveAspectRatio="xMidYMid meet">

<g transform="translate(0.000000,759.000000) scale(0.100000,-0.100000)"
fill="#000000" stroke="none">
<path d="M1389 7539 c-69 -10 -147 -40 -208 -81 -69 -46 -1012 -993 -1054
-1058 -107 -165 -107 -376 0 -540 20 -30 179 -199 354 -375 l319 -320 812 813
813 812 -320 319 c-176 175 -345 334 -375 354 -99 64 -226 93 -341 76z"/>
<path d="M5964 7516 c-117 -38 -159 -72 -494 -401 -179 -175 -326 -322 -328
-325 -1 -3 363 -370 808 -815 l811 -810 328 330 c306 308 330 335 364 405 74
155 71 313 -8 471 -9 19 -250 267 -534 552 -506 508 -518 519 -600 560 -82 41
-87 42 -195 44 -71 2 -126 -2 -152 -11z"/>
<path d="M3023 7374 c-61 -22 -126 -84 -153 -146 -59 -137 -4 -290 128 -355
56 -28 59 -28 280 -31 l222 -3 0 -175 0 -174 -32 0 c-51 0 -275 -37 -395 -64
-559 -129 -1054 -398 -1466 -796 -529 -511 -841 -1129 -944 -1870 -21 -156
-24 -605 -5 -750 46 -334 124 -625 243 -897 131 -300 341 -624 551 -850 l58
-63 -212 -419 -213 -419 0 -79 c0 -68 4 -85 30 -132 93 -169 320 -189 450 -39
22 25 106 181 203 376 92 182 170 332 174 332 4 0 35 -20 70 -44 775 -541
1808 -692 2723 -399 283 91 580 236 813 399 35 24 66 44 70 44 4 0 82 -150
174 -333 97 -194 181 -350 203 -375 130 -150 357 -130 450 39 26 47 30 64 30
132 l0 79 -212 419 -213 418 66 73 c332 366 587 848 709 1338 71 288 90 448
89 765 0 278 -11 396 -60 634 -88 429 -282 865 -542 1214 -408 550 -985 960
-1615 1148 -190 56 -507 119 -604 119 l-33 0 0 174 0 175 223 3 c220 3 223 3
279 31 96 47 150 135 150 242 1 117 -73 223 -179 259 -68 23 -1445 23 -1510 0z
m1082 -1658 c532 -78 1021 -330 1389 -717 338 -356 557 -804 633 -1299 24
-159 24 -500 0 -660 -63 -409 -213 -768 -461 -1100 -91 -122 -334 -365 -456
-456 -367 -274 -773 -433 -1210 -473 -591 -55 -1161 108 -1650 473 -122 91
-365 334 -456 456 -248 332 -398 691 -461 1100 -24 160 -24 501 0 660 121 786
600 1444 1306 1794 233 115 508 198 751 225 52 6 111 13 130 15 69 8 387 -4
485 -18z"/>
<path d="M3500 4415 l0 -775 -770 0 -770 0 0 -275 0 -276 938 3 937 3 50 23
c65 30 118 83 147 146 l23 51 3 938 3 937 -281 0 -280 0 0 -775z"/>
</g>
</svg>
