<?xml version="1.0" standalone="no"?>
<!DOCTYPE svg PUBLIC "-//W3C//DTD SVG 20010904//EN"
 "http://www.w3.org/TR/2001/REC-SVG-20010904/DTD/svg10.dtd">
<svg version="1.0" xmlns="http://www.w3.org/2000/svg"
 width="1280.000000pt" height="1280.000000pt" viewBox="0 0 1280.000000 1280.000000"
 preserveAspectRatio="xMidYMid meet">

<g transform="translate(0.000000,1280.000000) scale(0.100000,-0.100000)"
fill="#000000" stroke="none">
<path d="M6090 12789 c-913 -54 -1749 -269 -2508 -644 -364 -180 -670 -366
-982 -598 -1199 -891 -2048 -2155 -2404 -3582 -194 -780 -241 -1593 -136
-2395 164 -1261 663 -2376 1499 -3350 551 -640 1228 -1168 1986 -1545 287
-143 481 -225 751 -318 593 -203 1176 -312 1871 -349 444 -23 1021 27 1548
133 1562 317 2958 1234 3907 2566 450 632 773 1322 963 2058 211 814 263 1639
155 2465 -123 947 -435 1810 -941 2603 -493 772 -1134 1420 -1909 1929 -671
441 -1412 745 -2200 902 -544 109 -1119 154 -1600 125z m745 -675 c804 -63
1584 -287 2250 -647 1052 -567 1876 -1401 2417 -2447 559 -1080 759 -2394 548
-3600 -194 -1109 -673 -2066 -1476 -2951 -236 -260 -642 -603 -991 -837 -403
-270 -898 -515 -1338 -661 -780 -259 -1610 -355 -2395 -276 -1216 123 -2271
576 -3207 1376 -671 574 -1237 1370 -1571 2210 -266 667 -404 1397 -404 2129
0 728 137 1445 407 2122 73 184 260 564 365 743 267 454 674 972 999 1273 991
918 2107 1426 3416 1558 348 34 616 37 980 8z"/>
<path d="M7923 10732 c-607 -323 -1103 -592 -1103 -598 0 -10 1141 -2135 1177
-2193 13 -19 17 -21 28 -10 7 8 38 100 69 204 46 152 118 389 142 463 9 29
272 -188 406 -336 231 -254 378 -556 494 -1017 120 -475 128 -817 28 -1161
-28 -96 -29 -114 -11 -114 7 0 209 102 448 226 239 124 480 250 536 279 l102
53 317 -592 c401 -748 383 -716 400 -716 8 0 14 3 14 6 0 3 24 123 54 267 106
510 126 680 126 1087 0 632 -54 996 -224 1505 -173 518 -335 849 -560 1149
-125 166 -217 269 -455 506 -314 313 -562 520 -874 728 -115 76 -156 109 -153
121 3 9 39 151 81 316 116 452 109 416 76 414 -9 0 -512 -265 -1118 -587z"/>
<path d="M5940 11094 c-565 -30 -942 -117 -1535 -351 -262 -104 -360 -150
-523 -247 -241 -144 -426 -292 -701 -561 -361 -354 -640 -689 -846 -1015 -31
-49 -61 -90 -67 -90 -5 0 -143 34 -306 76 -433 112 -421 109 -433 97 -7 -7
169 -350 578 -1122 500 -944 591 -1111 608 -1108 19 2 2179 1160 2200 1178 6
6 4 14 -5 22 -8 8 -162 58 -342 112 -181 55 -328 102 -328 105 0 18 180 240
260 321 274 275 582 438 1065 564 478 125 848 137 1184 40 65 -19 120 -30 125
-25 5 5 -110 237 -273 549 -154 297 -281 542 -281 544 0 5 99 59 825 447 523
280 489 260 474 275 -23 23 -612 142 -844 171 -115 14 -678 26 -835 18z"/>
<path d="M1816 7568 c-31 -90 -148 -713 -166 -883 -29 -267 -21 -849 15 -1138
46 -378 147 -745 330 -1207 206 -518 402 -806 865 -1270 210 -209 326 -314
546 -490 115 -92 403 -295 478 -337 18 -10 17 -20 -42 -254 -34 -134 -75 -296
-92 -359 -34 -129 -36 -150 -16 -150 8 0 335 170 728 378 392 208 886 470
1098 582 212 112 391 208 397 214 10 9 -8 49 -76 176 -49 91 -315 584 -591
1095 -275 512 -507 936 -514 944 -12 11 -16 10 -24 -5 -7 -14 -190 -606 -205
-667 -5 -20 -222 157 -342 278 -232 233 -361 450 -475 796 -112 337 -167 623
-177 909 -7 229 11 365 82 593 13 42 13 49 0 54 -9 3 -248 -116 -553 -275
l-537 -279 -22 41 c-454 846 -681 1260 -690 1264 -7 2 -15 -2 -17 -10z"/>
<path d="M8975 5360 c-599 -324 -1091 -595 -1093 -603 -2 -10 22 -22 80 -40
46 -14 199 -60 341 -104 141 -43 257 -80 257 -83 0 -19 -183 -243 -267 -327
-232 -231 -457 -365 -813 -484 -336 -112 -625 -168 -916 -176 -217 -6 -311 5
-512 61 -64 19 -121 30 -126 25 -5 -4 115 -246 273 -550 155 -298 279 -545
274 -549 -4 -4 -267 -146 -583 -315 -316 -169 -605 -324 -642 -344 -91 -49
-90 -64 10 -84 42 -9 153 -32 247 -52 391 -82 564 -104 895 -111 776 -19 1278
70 1990 351 341 134 573 260 810 440 145 110 237 191 439 389 339 333 640 697
834 1009 27 42 53 77 58 77 5 0 122 -29 261 -65 465 -120 467 -120 479 -108 8
8 -150 313 -578 1119 -465 878 -592 1109 -608 1111 -11 1 -510 -263 -1110
-587z"/>
</g>
</svg>
